<svg id="レイヤー_1" data-name="レイヤー 1" xmlns="http://www.w3.org/2000/svg" viewBox="0 0 1070.4 480"><title>vi</title><rect width="480" height="480" style="fill:none"/><rect x="49.67" y="196.89" width="294.45" height="208.24" style="fill:#76cbc9"/><rect x="135.88" y="74.86" width="294.45" height="208.24" style="fill:#f16b36"/><rect x="196.89" y="135.88" width="86.21" height="208.24" transform="translate(0 480) rotate(-90)" style="fill:#966547"/><rect y="171.67" width="50" height="50" style="fill:none"/><rect x="430" y="171.67" width="50" height="50" style="fill:none"/><rect x="1020.46" y="171.67" width="50" height="50" style="fill:none"/><rect x="479.74" y="120.77" width="42.83" height="237.8" style="fill:#312f2e"/><polygon points="630.93 120.8 532.66 120.77 532.66 120.8 532.63 120.8 532.66 358.57 575.5 358.57 575.5 163.63 588.28 163.63 588.28 358.61 630.93 358.61 630.93 120.8" style="fill:#312f2e"/><path d="M742.51,120.77H644v0h0v237.8H742.5v0h0V120.77Zm-55.64,42.83h12.66V315.78H686.87V163.61Z" style="fill:#312f2e"/><polygon points="908.86 120.77 866.38 120.77 866.38 315.74 853.6 315.74 853.6 120.77 810.76 120.77 810.76 315.74 797.98 315.74 797.98 120.77 755.14 120.77 755.14 358.57 755.14 358.57 755.14 358.57 908.85 358.57 908.85 358.57 908.86 358.57 908.86 120.77" style="fill:#312f2e"/><rect x="921.86" y="120.8" width="0.15" height="42.75" style="fill:#312f2e"/><rect x="921.86" y="315.74" width="0.15" height="42.83" style="fill:#312f2e"/><rect x="921.86" y="163.55" width="0.15" height="0.08" style="fill:#312f2e"/><polygon points="922 120.77 922 120.8 922 163.55 922 163.63 977.63 163.63 977.63 315.74 964.84 315.74 964.84 176.17 922 176.17 922 358.57 1020.46 358.57 1020.46 120.77 922 120.77" style="fill:#312f2e"/></svg>